<svg version="1.1" id="Layer_1" xmlns="http://www.w3.org/2000/svg" xmlns:xlink="http://www.w3.org/1999/xlink" x="0px" y="0px"
	 width="100%" viewBox="0 0 414 414" enable-background="new 0 0 414 414" xml:space="preserve">
<path fill="#FDFEFD" opacity="1.000000" stroke="none" 
	d="
M4.000000,415.000000 
	C3.000288,415.000000 2.000576,415.000000 1.000648,415.000000 
	C1.000432,277.040070 1.000432,139.080139 1.000432,1.060100 
	C138.920135,1.060100 276.840302,1.060100 414.880249,1.060100 
	C414.880249,138.880295 414.880249,276.760712 414.880249,415.000000 
	C331.311035,415.000000 247.621552,415.000000 163.466034,414.560364 
	C162.448715,407.350861 163.800049,399.898804 156.343796,395.597931 
	C156.109695,395.462891 156.046066,395.032257 155.994781,394.422791 
	C166.443863,380.221985 179.023636,368.736084 193.232773,358.856415 
	C215.506165,343.369659 240.703644,334.299896 265.813141,324.925781 
	C301.120209,311.744690 335.342438,296.224487 367.018127,275.640411 
	C373.767212,271.254639 380.157074,265.794769 385.364441,259.681519 
	C392.951385,250.774780 391.137970,241.992508 381.577698,235.419998 
	C372.653473,229.284744 362.446442,228.234756 351.990387,227.959702 
	C351.673340,225.525375 350.366150,222.795349 351.218903,221.576584 
	C354.498169,216.889938 354.864075,212.032639 354.061646,206.659943 
	C353.578125,203.422455 352.066559,201.976913 348.896088,201.996704 
	C344.934601,202.021423 340.972809,201.999893 336.994476,201.730072 
	C337.049072,201.297440 337.120361,201.133041 337.401489,200.761581 
	C337.690857,200.172684 337.770386,199.790848 337.820374,199.022003 
	C342.539642,178.605911 343.110352,158.502106 339.008118,138.284897 
	C332.195465,104.709496 316.513855,76.293900 290.000702,54.251640 
	C267.231476,35.321972 240.858124,24.648678 211.587112,21.264984 
	C180.683151,17.692518 151.291779,22.512817 123.957611,38.078716 
	C107.108116,47.673939 92.852486,60.230465 80.254166,74.601791 
	C78.635834,74.082268 76.903908,73.376152 75.795372,73.926247 
	C70.310333,76.648117 65.541039,84.111046 69.042152,91.547417 
	C49.061783,126.967148 43.227196,164.096252 54.198910,203.096008 
	C65.161194,242.062256 87.757004,272.571808 123.007988,293.582458 
	C125.478523,297.729370 126.938766,296.380402 128.235992,292.753571 
	C129.291901,292.272949 130.112656,292.018158 130.960083,292.169281 
	C132.266724,293.238892 133.497345,294.036102 134.839218,294.532440 
	C136.511520,295.150940 138.275574,295.521271 139.731476,296.283630 
	C136.641754,297.378998 133.820572,298.189484 130.608109,298.953918 
	C120.240898,299.294067 110.118233,296.167603 101.015732,299.320862 
	C101.015732,308.984283 101.015732,317.799500 101.015732,326.798981 
	C109.001640,327.302032 116.164452,327.753235 123.580109,328.220337 
	C123.361366,329.936859 123.177986,331.375885 122.712448,333.031677 
	C114.988991,337.251190 107.547676,341.253906 99.956566,344.895996 
	C99.146980,342.322449 98.594101,340.070404 97.802200,337.905823 
	C96.629105,334.699249 95.747116,331.431549 90.963257,331.715698 
	C86.472267,331.982483 82.209633,330.080536 77.432991,330.246399 
	C72.779198,330.407959 71.241028,329.840515 70.215042,335.563538 
	C68.616943,344.477722 68.725082,352.985565 70.562561,362.828552 
	C65.666550,362.828552 60.819172,362.764313 55.974251,362.846100 
	C50.808578,362.933289 45.617260,362.913086 40.500610,363.496490 
	C39.225937,363.641815 37.395969,365.819855 37.197880,367.253784 
	C36.511429,372.222931 36.027103,377.294220 36.253521,382.290955 
	C36.422722,386.024872 32.428532,391.010223 38.637287,393.640686 
	C38.309750,394.692505 38.154835,395.471954 37.990204,396.634460 
	C37.320320,403.011688 36.660156,409.005829 35.999996,415.000000 
	C35.250000,415.000000 34.500000,415.000000 33.368797,414.614868 
	C32.566208,410.936218 30.040457,407.754456 32.575020,404.191925 
	C32.752060,403.943115 30.451792,401.234009 28.929831,400.660339 
	C27.232063,400.020325 25.107117,400.513550 22.285231,400.513550 
	C23.936544,398.306213 24.846973,397.089233 25.960663,395.600555 
	C19.497471,395.198212 13.528170,394.826599 7.897060,394.476013 
	C7.493713,396.007538 7.580607,397.890656 6.711977,398.594391 
	C2.857891,401.716919 4.189141,405.839783 4.091079,409.707489 
	C4.046359,411.471313 4.029498,413.235809 4.000000,415.000000 
z"/>
<path fill="#FEFFFF" opacity="1.000000" stroke="none" 
	d="
M131.000000,415.000000 
	C120.645775,415.000000 110.291542,415.000000 99.468552,414.531921 
	C99.001686,408.128418 99.003586,402.192993 99.467987,396.179504 
	C110.285545,396.146851 120.640587,396.192322 130.996521,396.691101 
	C130.998276,403.096313 130.999146,409.048157 131.000000,415.000000 
z"/>
<path fill="#FAFDFA" opacity="1.000000" stroke="none" 
	d="
M99.005478,396.257568 
	C99.003586,402.192993 99.001686,408.128418 98.999893,414.531921 
	C88.645775,415.000000 78.291542,415.000000 67.468796,414.531921 
	C66.998466,408.125244 66.996666,402.186615 67.457779,396.167969 
	C78.282288,396.144470 88.643883,396.201050 99.005478,396.257568 
z"/>
<path fill="#FBFEFC" opacity="1.000000" stroke="none" 
	d="
M131.468658,415.000000 
	C130.999146,409.048157 130.998276,403.096313 131.459717,396.612976 
	C137.391251,396.065491 142.865311,396.179291 148.327560,395.975983 
	C150.864517,395.881592 153.378540,395.170807 155.902954,394.739410 
	C156.046066,395.032257 156.109695,395.462891 156.343796,395.597931 
	C163.800049,399.898804 162.448715,407.350861 163.000000,414.560364 
	C152.645767,415.000000 142.291550,415.000000 131.468658,415.000000 
z"/>
<path fill="#FEFFFF" opacity="1.000000" stroke="none" 
	d="
M66.994873,396.248016 
	C66.996666,402.186615 66.998466,408.125244 67.000137,414.531921 
	C56.979107,415.000000 46.958210,415.000000 36.468655,415.000000 
	C36.660156,409.005829 37.320320,403.011688 38.452454,396.552368 
	C48.281239,396.140808 57.638058,396.194427 66.994873,396.248016 
z"/>
<path fill="#FAFDFA" opacity="1.000000" stroke="none" 
	d="
M4.468657,415.000000 
	C4.029498,413.235809 4.046359,411.471313 4.091079,409.707489 
	C4.189141,405.839783 2.857891,401.716919 6.711977,398.594391 
	C7.580607,397.890656 7.493713,396.007538 7.897060,394.476013 
	C13.528170,394.826599 19.497471,395.198212 25.960663,395.600555 
	C24.846973,397.089233 23.936544,398.306213 22.285231,400.513550 
	C25.107117,400.513550 27.232063,400.020325 28.929831,400.660339 
	C30.451792,401.234009 32.752060,403.943115 32.575020,404.191925 
	C30.040457,407.754456 32.566208,410.936218 32.993797,414.614868 
	C23.645771,415.000000 14.291543,415.000000 4.468657,415.000000 
z"/>
<path fill="#04C4CC" opacity="1.000000" stroke="none" 
	d="
M122.993607,293.219604 
	C87.757004,272.571808 65.161194,242.062256 54.198910,203.096008 
	C43.227196,164.096252 49.061783,126.967148 69.326591,91.357887 
	C73.262054,85.549919 76.845016,80.272133 80.427979,74.994347 
	C92.852486,60.230465 107.108116,47.673939 123.957611,38.078716 
	C151.291779,22.512817 180.683151,17.692518 211.587112,21.264984 
	C240.858124,24.648678 267.231476,35.321972 290.000702,54.251640 
	C316.513855,76.293900 332.195465,104.709496 339.008118,138.284897 
	C343.110352,158.502106 342.539642,178.605911 337.583069,199.214401 
	C337.314087,200.185425 337.252869,200.577042 337.191650,200.968643 
	C337.120361,201.133041 337.049072,201.297440 336.782227,202.018158 
	C333.152161,213.720108 325.682831,221.845474 316.568604,229.007477 
	C315.863129,229.435303 315.434753,229.802551 314.674927,230.246246 
	C306.176117,234.184311 298.008728,238.045929 289.457520,241.917725 
	C278.372772,245.169861 267.671844,248.411835 256.563202,251.683350 
	C245.661301,254.769394 235.167114,257.825928 224.376587,260.863342 
	C223.708344,260.970703 223.336441,261.097137 222.671173,261.214874 
	C222.067917,261.427094 221.758041,261.648041 221.082397,261.846619 
	C218.388412,262.511078 216.060181,263.197937 213.343506,263.873627 
	C206.217819,265.858521 199.480560,267.854584 192.359818,269.863617 
	C182.320023,272.980438 172.663696,276.084290 162.638107,279.196747 
	C151.823685,283.391357 141.378555,287.577362 130.933426,291.763367 
	C130.112656,292.018158 129.291901,292.272949 127.817863,292.753296 
	C125.774269,293.059143 124.383934,293.139374 122.993607,293.219604 
M245.463104,75.079933 
	C250.825119,68.878288 250.894150,62.665890 245.479584,55.948105 
	C240.425461,49.677505 233.697052,46.031372 225.372757,43.596451 
	C215.087265,40.584709 204.868652,39.204842 194.256989,45.006409 
	C185.547348,51.071815 185.830566,61.699680 195.226425,70.769508 
	C197.904755,72.496010 200.583069,74.222519 203.349762,76.216164 
	C203.349762,76.216164 203.581589,76.370987 203.581589,76.370987 
	C203.581589,76.370987 203.848145,76.289726 204.412369,76.800438 
	C206.271774,77.476868 208.131180,78.153305 210.669128,79.214989 
	C215.789673,79.992355 220.910233,80.769714 226.801834,81.701744 
	C233.348038,81.039879 239.786179,80.070038 245.463104,75.079933 
M282.124420,116.219795 
	C276.924866,122.557365 275.196533,129.995880 275.064972,138.866669 
	C275.598389,151.099396 278.476318,162.388550 288.274200,171.568161 
	C289.179352,172.050980 290.084534,172.533798 291.482117,173.603455 
	C298.064362,176.379700 304.116058,176.031235 309.890686,170.196747 
	C318.265381,159.419525 318.550903,147.492477 314.933533,134.257477 
	C312.689941,126.710594 309.312653,119.811943 303.215240,114.591148 
	C299.723053,111.601013 295.821625,109.630966 290.278839,110.990318 
	C289.191925,111.455856 288.105011,111.921394 286.420471,112.546074 
	C285.182678,113.659851 283.944885,114.773628 282.124420,116.219795 
M135.658524,100.350693 
	C136.739838,93.434052 137.303009,86.612610 131.764725,80.241982 
	C127.356361,75.304413 121.943573,75.241600 116.211914,77.158150 
	C100.728035,82.335648 85.499069,104.410271 86.102989,120.713440 
	C86.642822,135.286469 97.363205,141.743546 110.109505,134.738251 
	C123.500641,127.378563 131.435394,115.640533 135.658524,100.350693 
M193.879089,136.641098 
	C191.420868,136.984497 188.873795,137.026215 186.518707,137.719788 
	C170.013199,142.580627 160.924820,160.332184 166.246002,177.089386 
	C171.400620,193.321960 189.023956,202.471542 205.345825,197.388977 
	C219.714935,192.914520 228.170868,178.668625 225.877319,162.799179 
	C223.731354,147.950928 210.675995,136.962982 193.879089,136.641098 
M126.214813,208.320068 
	C119.734009,200.281403 112.284752,193.468689 102.082756,190.597168 
	C92.140549,187.798782 84.055771,193.595627 84.131668,203.921555 
	C84.169792,209.107727 85.041878,214.648178 87.043617,219.392700 
	C93.334480,234.303314 102.992142,246.344131 119.283241,251.124481 
	C128.401199,253.799988 135.216980,248.915497 136.235779,239.580643 
	C137.501495,227.983337 133.118866,218.095932 126.214813,208.320068 
z"/>
<path fill="#04C4CC" opacity="1.000000" stroke="none" 
	d="
M67.457779,396.167969 
	C57.638058,396.194427 48.281239,396.140808 38.462173,396.169312 
	C38.154835,395.471954 38.309750,394.692505 38.899094,393.483795 
	C44.987068,387.951355 50.334579,382.449768 56.355145,377.824249 
	C70.770409,366.749084 85.502296,356.086060 100.106369,345.256622 
	C107.547676,341.253906 114.988991,337.251190 123.053116,332.980835 
	C126.591835,331.227631 129.507736,329.742065 132.761230,328.210693 
	C134.291290,327.515564 135.483765,326.866211 137.025726,326.220917 
	C146.912781,322.399933 156.450348,318.574890 166.349701,314.720459 
	C176.142166,311.421295 185.572845,308.151581 195.387177,304.887207 
	C200.550522,303.402588 205.330261,301.912598 210.506866,300.365784 
	C216.699280,298.592529 222.494797,296.876160 228.677902,295.156433 
	C247.150909,290.184052 265.293213,285.410980 283.303497,280.182983 
	C297.301971,276.119507 311.135803,271.488831 325.424072,267.090698 
	C335.212646,263.068665 344.619934,259.066162 354.364746,254.993011 
	C357.479248,252.309647 360.256226,249.696930 363.287048,246.861572 
	C363.655945,245.767395 363.771057,244.895844 363.949371,243.760651 
	C363.961121,243.323746 363.909668,243.150467 363.896973,242.671112 
	C363.649384,241.845490 363.363007,241.325943 363.028809,240.487030 
	C362.436035,239.518448 361.891083,238.869263 361.191528,237.948578 
	C359.355682,236.829880 357.674500,235.982666 355.715149,234.963120 
	C354.623474,234.200150 353.809967,233.609512 352.772766,232.781677 
	C351.144531,231.980331 349.740021,231.416168 348.350586,230.545349 
	C349.574554,229.611847 350.783417,228.985001 351.992310,228.358139 
	C362.446442,228.234756 372.653473,229.284744 381.577698,235.419998 
	C391.137970,241.992508 392.951385,250.774780 385.364441,259.681519 
	C380.157074,265.794769 373.767212,271.254639 367.018127,275.640411 
	C335.342438,296.224487 301.120209,311.744690 265.813141,324.925781 
	C240.703644,334.299896 215.506165,343.369659 193.232773,358.856415 
	C179.023636,368.736084 166.443863,380.221985 155.994797,394.422791 
	C153.378540,395.170807 150.864517,395.881592 148.327560,395.975983 
	C142.865311,396.179291 137.391251,396.065491 131.458832,396.159607 
	C120.640587,396.192322 110.285545,396.146851 99.467987,396.179504 
	C88.643883,396.201050 78.282288,396.144470 67.457779,396.167969 
z"/>
<path fill="#FAFDFA" opacity="1.000000" stroke="none" 
	d="
M99.956573,344.895996 
	C85.502296,356.086060 70.770409,366.749084 56.355145,377.824249 
	C50.334579,382.449768 44.987068,387.951355 39.071716,393.211456 
	C32.428532,391.010223 36.422722,386.024872 36.253521,382.290955 
	C36.027103,377.294220 36.511429,372.222931 37.197880,367.253784 
	C37.395969,365.819855 39.225937,363.641815 40.500610,363.496490 
	C45.617260,362.913086 50.808578,362.933289 55.974251,362.846100 
	C60.819172,362.764313 65.666550,362.828552 70.562561,362.828552 
	C68.725082,352.985565 68.616943,344.477722 70.215042,335.563538 
	C71.241028,329.840515 72.779198,330.407959 77.432991,330.246399 
	C82.209633,330.080536 86.472267,331.982483 90.963257,331.715698 
	C95.747116,331.431549 96.629105,334.699249 97.802200,337.905823 
	C98.594101,340.070404 99.146980,342.322449 99.956573,344.895996 
z"/>
<path fill="#FAFDFA" opacity="1.000000" stroke="none" 
	d="
M132.423630,328.256470 
	C129.507736,329.742065 126.591835,331.227631 123.335274,332.764069 
	C123.177986,331.375885 123.361366,329.936859 123.580109,328.220337 
	C116.164452,327.753235 109.001640,327.302032 101.015732,326.798981 
	C101.015732,317.799500 101.015732,308.984283 101.015732,299.320862 
	C110.118233,296.167603 120.240898,299.294067 130.608109,299.420044 
	C130.999390,304.621094 130.999390,309.309937 130.639130,314.066406 
	C128.537079,316.049805 127.910591,317.800507 130.999420,319.376068 
	C130.999512,320.500610 130.999573,321.250305 130.726593,322.234558 
	C131.110245,324.398254 131.766937,326.327362 132.423630,328.256470 
z"/>
<path fill="#FDFFFE" opacity="1.000000" stroke="none" 
	d="
M130.999390,313.998779 
	C130.999390,309.309937 130.999390,304.621094 130.999390,299.466125 
	C133.820572,298.189484 136.641754,297.378998 140.064789,296.283997 
	C141.111099,295.999695 141.555557,295.999847 142.217163,296.255554 
	C148.760010,296.511139 155.085693,296.511139 161.829620,296.511139 
	C162.285645,301.474060 162.395157,305.409973 163.113235,309.231537 
	C163.434128,310.939148 164.977295,312.417084 165.971191,314.186890 
	C165.976624,314.374573 165.987915,314.749878 165.987915,314.749878 
	C156.450348,318.574890 146.912781,322.399933 136.606903,326.160889 
	C134.225616,324.731201 132.612625,323.365601 130.999634,322.000000 
	C130.999573,321.250305 130.999512,320.500610 130.999680,318.959167 
	C130.999741,316.777893 130.999557,315.388336 130.999390,313.998779 
z"/>
<path fill="#FAFDFA" opacity="1.000000" stroke="none" 
	d="
M351.990387,227.959702 
	C350.783417,228.985001 349.574554,229.611847 347.937653,230.591736 
	C341.161560,231.291885 334.815002,231.675232 328.463684,231.946579 
	C327.527313,231.986572 326.022125,231.789490 325.707458,231.203842 
	C323.511658,227.117264 320.086090,228.512466 316.845642,228.946930 
	C325.682831,221.845474 333.152161,213.720108 336.798950,202.286423 
	C340.972809,201.999893 344.934601,202.021423 348.896088,201.996704 
	C352.066559,201.976913 353.578125,203.422455 354.061646,206.659943 
	C354.864075,212.032639 354.498169,216.889938 351.218903,221.576584 
	C350.366150,222.795349 351.673340,225.525375 351.990387,227.959702 
z"/>
<path fill="#FAFDFA" opacity="1.000000" stroke="none" 
	d="
M142.000000,296.000000 
	C141.555557,295.999847 141.111099,295.999695 140.333328,295.999146 
	C138.275574,295.521271 136.511520,295.150940 134.839218,294.532440 
	C133.497345,294.036102 132.266724,293.238892 130.960083,292.169281 
	C141.378555,287.577362 151.823685,283.391357 162.636139,279.631104 
	C163.002090,284.704132 163.000732,289.351471 162.596237,294.049072 
	C159.478363,294.238464 156.753220,294.272949 154.051315,294.541199 
	C150.025604,294.940857 146.016296,295.505554 142.000000,296.000000 
z"/>
<path fill="#F2FBF8" opacity="1.000000" stroke="none" 
	d="
M80.254166,74.601791 
	C76.845016,80.272133 73.262054,85.549919 69.394653,91.017235 
	C65.541039,84.111046 70.310333,76.648117 75.795372,73.926247 
	C76.903908,73.376152 78.635834,74.082268 80.254166,74.601791 
z"/>
<path fill="#FAFDFA" opacity="1.000000" stroke="none" 
	d="
M123.007988,293.582489 
	C124.383934,293.139374 125.774269,293.059143 127.582733,292.979187 
	C126.938766,296.380402 125.478523,297.729370 123.007988,293.582489 
z"/>
<path fill="#FAFDFA" opacity="1.000000" stroke="none" 
	d="
M337.401489,200.761581 
	C337.252869,200.577042 337.314087,200.185425 337.612610,199.601410 
	C337.770386,199.790848 337.690857,200.172684 337.401489,200.761581 
z"/>
<path fill="#FBFEFC" opacity="1.000000" stroke="none" 
	d="
M194.292145,136.602234 
	C210.675995,136.962982 223.731354,147.950928 225.877319,162.799179 
	C228.170868,178.668625 219.714935,192.914520 205.345825,197.388977 
	C189.023956,202.471542 171.400620,193.321960 166.246002,177.089386 
	C160.924820,160.332184 170.013199,142.580627 186.518707,137.719788 
	C188.873795,137.026215 191.420868,136.984497 194.292145,136.602234 
z"/>
<path fill="#FCFEFD" opacity="1.000000" stroke="none" 
	d="
M325.042816,267.110260 
	C311.135803,271.488831 297.301971,276.119507 283.303497,280.182983 
	C265.293213,285.410980 247.150909,290.184052 228.357086,294.930664 
	C225.757431,290.103943 224.342743,285.611603 225.759750,280.374939 
	C226.636887,277.133392 226.163879,273.454834 225.911667,270.000610 
	C225.685181,266.898773 224.226089,264.825867 220.519547,264.922058 
	C218.267502,264.980499 215.995163,264.256989 213.731949,263.884766 
	C216.060181,263.197937 218.388412,262.511078 221.372299,261.832214 
	C222.340149,261.634674 222.652344,261.429138 222.964539,261.223602 
	C223.336441,261.097137 223.708344,260.970703 224.783417,260.931061 
	C231.531616,263.513550 237.622894,264.960846 244.197479,262.910156 
	C246.114029,262.312317 248.387543,262.437500 250.424805,262.732605 
	C255.194351,263.423523 257.978882,260.800476 257.220581,256.128906 
	C256.982513,254.662323 257.045624,253.146896 256.970917,251.653809 
	C267.671844,248.411835 278.372772,245.169861 289.763000,242.169037 
	C290.968933,248.386368 291.661560,254.354813 291.924805,260.342133 
	C292.048340,263.152222 292.989563,264.250519 295.743378,264.011230 
	C300.162018,263.627380 304.621002,262.840363 309.003387,263.128632 
	C314.335175,263.479309 319.191345,263.321136 322.999237,259.401001 
	C323.680725,262.238464 324.361786,264.674347 325.042816,267.110260 
z"/>
<path fill="#FAFEFC" opacity="1.000000" stroke="none" 
	d="
M126.437706,208.600433 
	C133.118866,218.095932 137.501495,227.983337 136.235779,239.580643 
	C135.216980,248.915497 128.401199,253.799988 119.283241,251.124481 
	C102.992142,246.344131 93.334480,234.303314 87.043617,219.392700 
	C85.041878,214.648178 84.169792,209.107727 84.131668,203.921555 
	C84.055771,193.595627 92.140549,187.798782 102.082756,190.597168 
	C112.284752,193.468689 119.734009,200.281403 126.437706,208.600433 
z"/>
<path fill="#FBFEFC" opacity="1.000000" stroke="none" 
	d="
M135.247284,100.986717 
	C131.435394,115.640533 123.500641,127.378563 110.109505,134.738251 
	C97.363205,141.743546 86.642822,135.286469 86.102989,120.713440 
	C85.499069,104.410271 100.728035,82.335648 116.211914,77.158150 
	C121.943573,75.241600 127.356361,75.304413 131.783630,80.869675 
	C131.537903,85.353928 130.695618,89.287888 131.198486,93.041641 
	C131.574768,95.850380 129.867401,100.469994 135.247284,100.986717 
z"/>
<path fill="#FDFFFE" opacity="1.000000" stroke="none" 
	d="
M275.219757,137.989929 
	C275.196533,129.995880 276.924866,122.557365 282.797272,116.081848 
	C284.652802,114.758255 285.835449,113.572594 287.018097,112.386932 
	C288.105011,111.921394 289.191925,111.455856 290.640259,111.432419 
	C291.493347,118.252815 292.363190,124.634193 292.311005,131.008026 
	C292.286316,134.021408 293.084900,134.971802 295.709198,134.985733 
	C302.103607,135.019684 308.498352,135.001862 314.892944,135.004898 
	C318.550903,147.492477 318.265381,159.419525 309.357971,170.016541 
	C303.474182,169.981918 298.117035,170.035553 292.780029,170.391785 
	C292.127747,170.435318 291.583801,172.102097 290.989685,173.016602 
	C290.084534,172.533798 289.179352,172.050980 288.181213,170.902618 
	C288.728668,167.722168 289.717010,165.237274 289.937103,162.686096 
	C290.394806,157.381958 290.674011,152.040009 290.611206,146.718491 
	C290.509949,138.141800 290.221710,138.002411 281.653656,138.000000 
	C279.509033,137.999390 277.364380,137.993423 275.219757,137.989929 
z"/>
<path fill="#FDFFFE" opacity="1.000000" stroke="none" 
	d="
M209.990585,78.829735 
	C208.131180,78.153305 206.271774,77.476868 204.043518,76.473663 
	C203.674652,76.146896 203.261398,75.949028 203.261398,75.949028 
	C200.583069,74.222519 197.904755,72.496010 195.097443,70.034180 
	C194.958206,61.147175 194.947952,52.995495 194.937698,44.843819 
	C204.868652,39.204842 215.087265,40.584709 225.738251,44.218243 
	C226.735825,49.579220 227.472916,54.307697 227.957825,59.061893 
	C228.219604,61.628487 228.695358,64.450912 227.930023,66.782188 
	C226.651825,70.675774 228.480927,72.038132 231.545242,71.884354 
	C236.460266,71.637665 240.930298,72.338310 244.907440,75.347794 
	C239.786179,80.070038 233.348038,81.039879 226.411270,81.265137 
	C225.545715,78.506744 225.862946,75.255508 224.441589,74.044022 
	C220.735550,70.885193 211.725555,74.202232 209.990585,78.829735 
z"/>
<path fill="#FDFFFE" opacity="1.000000" stroke="none" 
	d="
M325.424072,267.090698 
	C324.361786,264.674347 323.680725,262.238464 322.999573,258.932373 
	C322.998413,251.122238 322.944031,244.181641 323.022003,237.242538 
	C323.054108,234.385132 322.012726,232.855499 318.984222,232.992310 
	C316.971832,233.083206 314.787354,233.282898 315.006348,230.169815 
	C315.434753,229.802551 315.863129,229.435303 316.568604,229.007477 
	C320.086090,228.512466 323.511658,227.117264 325.707458,231.203842 
	C326.022125,231.789490 327.527313,231.986572 328.463684,231.946579 
	C334.815002,231.675232 341.161560,231.291885 347.922546,230.898392 
	C349.740021,231.416168 351.144531,231.980331 352.817688,233.163849 
	C356.433350,240.742584 355.451813,247.893326 354.027252,255.063660 
	C344.619934,259.066162 335.212646,263.068665 325.424072,267.090698 
z"/>
<path fill="#F9FDFA" opacity="1.000000" stroke="none" 
	d="
M213.343506,263.873627 
	C215.995163,264.256989 218.267502,264.980499 220.519547,264.922058 
	C224.226089,264.825867 225.685181,266.898773 225.911667,270.000610 
	C226.163879,273.454834 226.636887,277.133392 225.759750,280.374939 
	C224.342743,285.611603 225.757431,290.103943 227.969513,294.933960 
	C222.494797,296.876160 216.699280,298.592529 210.476181,299.915710 
	C210.210342,297.070587 209.274261,295.871216 206.607315,295.954803 
	C204.003357,296.036377 201.370193,295.838013 198.784317,295.499420 
	C197.856064,295.377869 196.326080,294.551086 196.272217,293.940247 
	C195.989670,290.736572 195.403580,287.313873 196.209579,284.312836 
	C197.731873,278.644897 197.221649,273.882233 192.743301,269.850647 
	C199.480560,267.854584 206.217819,265.858521 213.343506,263.873627 
z"/>
<path fill="#FAFDFA" opacity="1.000000" stroke="none" 
	d="
M314.674927,230.246246 
	C314.787354,233.282898 316.971832,233.083206 318.984222,232.992310 
	C322.012726,232.855499 323.054108,234.385132 323.022003,237.242538 
	C322.944031,244.181641 322.998413,251.122238 322.999146,258.530823 
	C319.191345,263.321136 314.335175,263.479309 309.003387,263.128632 
	C304.621002,262.840363 300.162018,263.627380 295.743378,264.011230 
	C292.989563,264.250519 292.048340,263.152222 291.924805,260.342133 
	C291.661560,254.354813 290.968933,248.386368 290.146820,242.158875 
	C298.008728,238.045929 306.176117,234.184311 314.674927,230.246246 
z"/>
<path fill="#FDFFFE" opacity="1.000000" stroke="none" 
	d="
M192.359818,269.863586 
	C197.221649,273.882233 197.731873,278.644897 196.209579,284.312836 
	C195.403580,287.313873 195.989670,290.736572 196.272217,293.940247 
	C196.326080,294.551086 197.856064,295.377869 198.784317,295.499420 
	C201.370193,295.838013 204.003357,296.036377 206.607315,295.954803 
	C209.274261,295.871216 210.210342,297.070587 210.079315,299.972534 
	C205.330261,301.912598 200.550522,303.402588 195.386200,304.448975 
	C194.052002,301.599060 197.414383,297.113434 191.680664,297.021759 
	C187.788193,296.959534 183.894028,297.004303 179.817261,296.751068 
	C178.755753,296.667664 177.877563,296.834442 176.666367,297.001221 
	C175.889297,297.001190 175.445267,297.001190 174.678009,296.973999 
	C173.236328,296.964905 172.117859,296.983063 170.666367,297.001160 
	C169.889297,297.001160 169.445267,297.001190 168.647308,296.964996 
	C166.528717,295.952118 164.764053,294.975433 162.999390,293.998779 
	C163.000732,289.351471 163.002090,284.704132 163.005402,279.622498 
	C172.663696,276.084290 182.320023,272.980438 192.359818,269.863586 
z"/>
<path fill="#F9FDFA" opacity="1.000000" stroke="none" 
	d="
M245.185272,75.213867 
	C240.930298,72.338310 236.460266,71.637665 231.545242,71.884354 
	C228.480927,72.038132 226.651825,70.675774 227.930023,66.782188 
	C228.695358,64.450912 228.219604,61.628487 227.957825,59.061893 
	C227.472916,54.307697 226.735825,49.579220 226.050140,44.434715 
	C233.697052,46.031372 240.425461,49.677505 245.479584,55.948105 
	C250.894150,62.665890 250.825119,68.878288 245.185272,75.213867 
z"/>
<path fill="#F9FDFA" opacity="1.000000" stroke="none" 
	d="
M314.913239,134.631195 
	C308.498352,135.001862 302.103607,135.019684 295.709198,134.985733 
	C293.084900,134.971802 292.286316,134.021408 292.311005,131.008026 
	C292.363190,124.634193 291.493347,118.252815 290.999207,111.456520 
	C295.821625,109.630966 299.723053,111.601013 303.215240,114.591148 
	C309.312653,119.811943 312.689941,126.710594 314.913239,134.631195 
z"/>
<path fill="#F6FCF9" opacity="1.000000" stroke="none" 
	d="
M275.142365,138.428299 
	C277.364380,137.993423 279.509033,137.999390 281.653656,138.000000 
	C290.221710,138.002411 290.509949,138.141800 290.611206,146.718491 
	C290.674011,152.040009 290.394806,157.381958 289.937103,162.686096 
	C289.717010,165.237274 288.728668,167.722168 288.043518,170.620300 
	C278.476318,162.388550 275.598389,151.099396 275.142365,138.428299 
z"/>
<path fill="#F9FDFA" opacity="1.000000" stroke="none" 
	d="
M256.563202,251.683350 
	C257.045624,253.146896 256.982513,254.662323 257.220581,256.128906 
	C257.978882,260.800476 255.194351,263.423523 250.424805,262.732605 
	C248.387543,262.437500 246.114029,262.312317 244.197479,262.910156 
	C237.622894,264.960846 231.531616,263.513550 225.079758,260.950134 
	C235.167114,257.825928 245.661301,254.769394 256.563202,251.683350 
z"/>
<path fill="#F2FBF8" opacity="1.000000" stroke="none" 
	d="
M194.597351,44.925114 
	C194.947952,52.995495 194.958206,61.147175 194.948090,69.736801 
	C185.830566,61.699680 185.547348,51.071815 194.597351,44.925114 
z"/>
<path fill="#F2FBF8" opacity="1.000000" stroke="none" 
	d="
M210.329865,79.022362 
	C211.725555,74.202232 220.735550,70.885193 224.441589,74.044022 
	C225.862946,75.255508 225.545715,78.506744 226.025742,81.187805 
	C220.910233,80.769714 215.789673,79.992355 210.329865,79.022362 
z"/>
<path fill="#F6FCF9" opacity="1.000000" stroke="none" 
	d="
M291.235901,173.310028 
	C291.583801,172.102097 292.127747,170.435318 292.780029,170.391785 
	C298.117035,170.035553 303.474182,169.981918 309.063110,170.207123 
	C304.116058,176.031235 298.064362,176.379700 291.235901,173.310028 
z"/>
<path fill="#F2FBF8" opacity="1.000000" stroke="none" 
	d="
M135.452911,100.668701 
	C129.867401,100.469994 131.574768,95.850380 131.198486,93.041641 
	C130.695618,89.287888 131.537903,85.353928 131.939621,81.176086 
	C137.303009,86.612610 136.739838,93.434052 135.452911,100.668701 
z"/>
<path fill="#F9FDFA" opacity="1.000000" stroke="none" 
	d="
M286.719299,112.466507 
	C285.835449,113.572594 284.652802,114.758255 283.088623,115.915657 
	C283.944885,114.773628 285.182678,113.659851 286.719299,112.466507 
z"/>
<path fill="#F2FBF8" opacity="1.000000" stroke="none" 
	d="
M203.305573,76.082596 
	C203.261398,75.949028 203.674652,76.146896 203.761398,76.218307 
	C203.848145,76.289726 203.581589,76.370987 203.581589,76.370987 
	C203.581589,76.370987 203.349762,76.216164 203.305573,76.082596 
z"/>
<path fill="#F9FDFA" opacity="1.000000" stroke="none" 
	d="
M222.671173,261.214874 
	C222.652344,261.429138 222.340149,261.634674 221.738068,261.854584 
	C221.758041,261.648041 222.067917,261.427094 222.671173,261.214874 
z"/>
<path fill="#F9FDFA" opacity="1.000000" stroke="none" 
	d="
M169.001221,297.001221 
	C169.445267,297.001190 169.889297,297.001160 170.820801,297.302368 
	C172.812088,299.075531 174.235657,300.055328 175.001221,297.001221 
	C175.445267,297.001190 175.889297,297.001190 176.849945,297.250854 
	C178.244553,297.334076 179.122589,297.167633 180.000610,297.001221 
	C183.894028,297.004303 187.788193,296.959534 191.680664,297.021759 
	C197.414383,297.113434 194.052002,301.599060 195.002579,304.443604 
	C185.572845,308.151581 176.142166,311.421295 166.349701,314.720459 
	C165.987915,314.749878 165.976624,314.374573 165.931366,313.773193 
	C164.534622,307.321198 163.324753,301.497925 169.001221,297.001221 
z"/>
<path fill="#FAFDFA" opacity="1.000000" stroke="none" 
	d="
M354.364746,254.993011 
	C355.451813,247.893326 356.433350,240.742584 353.041382,233.401047 
	C353.809967,233.609512 354.623474,234.200150 355.724060,235.329697 
	C356.953918,238.548187 357.867249,241.294510 361.346161,238.220078 
	C361.891083,238.869263 362.436035,239.518448 363.013916,240.794662 
	C363.317291,241.940201 363.587738,242.458710 363.858215,242.977203 
	C363.909668,243.150467 363.961121,243.323746 363.704346,243.985519 
	C363.275146,245.344086 363.154175,246.214142 363.033203,247.084198 
	C360.256226,249.696930 357.479248,252.309647 354.364746,254.993011 
z"/>
<path fill="#F2FBF8" opacity="1.000000" stroke="none" 
	d="
M361.191528,237.948578 
	C357.867249,241.294510 356.953918,238.548187 356.002258,235.502029 
	C357.674500,235.982666 359.355682,236.829880 361.191528,237.948578 
z"/>
<path fill="#FDFEFD" opacity="1.000000" stroke="none" 
	d="
M130.726593,322.234558 
	C132.612625,323.365601 134.225616,324.731201 136.257431,326.156860 
	C135.483765,326.866211 134.291290,327.515564 132.761230,328.210693 
	C131.766937,326.327362 131.110245,324.398254 130.726593,322.234558 
z"/>
<path fill="#F2FBF8" opacity="1.000000" stroke="none" 
	d="
M363.287048,246.861572 
	C363.154175,246.214142 363.275146,245.344086 363.641113,244.249176 
	C363.771057,244.895844 363.655945,245.767395 363.287048,246.861572 
z"/>
<path fill="#F2FBF8" opacity="1.000000" stroke="none" 
	d="
M363.896973,242.671112 
	C363.587738,242.458710 363.317291,241.940201 363.061737,241.114044 
	C363.363007,241.325943 363.649384,241.845490 363.896973,242.671112 
z"/>
<path fill="#FDFEFD" opacity="1.000000" stroke="none" 
	d="
M130.639130,314.066406 
	C130.999557,315.388336 130.999741,316.777893 130.999649,318.584351 
	C127.910591,317.800507 128.537079,316.049805 130.639130,314.066406 
z"/>
<path fill="#FDFEFD" opacity="1.000000" stroke="none" 
	d="
M168.647308,296.964996 
	C163.324753,301.497925 164.534622,307.321198 165.925919,313.585510 
	C164.977295,312.417084 163.434128,310.939148 163.113235,309.231537 
	C162.395157,305.409973 162.285645,301.474060 161.829620,296.511139 
	C155.085693,296.511139 148.760010,296.511139 142.217163,296.255554 
	C146.016296,295.505554 150.025604,294.940857 154.051315,294.541199 
	C156.753220,294.272949 159.478363,294.238464 162.596252,294.049072 
	C164.764053,294.975433 166.528717,295.952118 168.647308,296.964996 
z"/>
<path fill="#FDFEFD" opacity="1.000000" stroke="none" 
	d="
M174.678009,296.973999 
	C174.235657,300.055328 172.812088,299.075531 171.153809,297.302429 
	C172.117859,296.983063 173.236328,296.964905 174.678009,296.973999 
z"/>
<path fill="#FDFEFD" opacity="1.000000" stroke="none" 
	d="
M179.817261,296.751068 
	C179.122589,297.167633 178.244553,297.334076 177.182953,297.250854 
	C177.877563,296.834442 178.755753,296.667664 179.817261,296.751068 
z"/>
</svg>